<?xml version="1.0" standalone="no"?>
<!DOCTYPE svg PUBLIC "-//W3C//DTD SVG 20010904//EN"
 "http://www.w3.org/TR/2001/REC-SVG-20010904/DTD/svg10.dtd">
<svg version="1.0" xmlns="http://www.w3.org/2000/svg"
 width="1408.000000pt" height="768.000000pt" viewBox="0 0 1408.000000 768.000000"
 preserveAspectRatio="xMidYMid meet">

<g transform="translate(0.000000,768.000000) scale(0.100000,-0.100000)"
fill="#044cb6" stroke="none">
<path d="M6967 6750 c-101 -26 -199 -106 -240 -198 -32 -72 -35 -178 -7 -253
12 -33 20 -62 18 -63 -8 -5 -185 -134 -335 -243 -90 -65 -235 -170 -323 -233
-88 -63 -251 -181 -361 -262 l-202 -148 -42 39 c-63 58 -141 84 -240 79 -170
-9 -295 -119 -325 -286 -19 -109 10 -201 90 -286 72 -76 151 -111 252 -111
l77 1 66 -191 c36 -104 141 -417 235 -695 151 -452 167 -506 152 -515 -48 -29
-132 -121 -153 -168 -35 -78 -34 -211 2 -287 66 -139 231 -222 376 -191 150
33 243 128 277 284 l6 27 755 0 c744 0 755 0 755 -20 0 -52 45 -136 104 -196
75 -75 135 -99 246 -98 268 1 428 296 285 524 -22 35 -81 92 -123 120 l-23 15
230 689 c127 379 233 691 235 694 3 2 40 5 83 6 62 1 91 7 140 30 263 120 274
488 19 618 -121 62 -270 47 -381 -38 -25 -19 -48 -34 -51 -34 -3 0 -110 76
-237 169 -323 235 -793 577 -874 634 -117 82 -107 66 -82 138 57 170 -21 350
-186 425 -60 28 -159 38 -218 24z m-147 -613 c0 -4 -67 -103 -148 -220 -82
-116 -182 -261 -223 -322 l-75 -110 -245 -73 c-134 -40 -305 -91 -379 -114
-74 -22 -143 -42 -152 -45 -11 -3 -22 5 -32 26 l-16 30 52 39 c73 54 363 264
479 348 54 38 216 154 360 258 145 105 280 202 299 218 l34 28 23 -28 c12 -15
22 -30 23 -35z m592 -10 c40 -30 237 -172 438 -317 201 -145 415 -300 475
-345 61 -45 131 -96 158 -114 48 -33 57 -54 34 -85 -14 -19 20 -28 -517 134
-107 32 -214 64 -237 70 -41 10 -48 19 -260 325 -120 174 -222 322 -228 330
-11 17 32 68 52 61 7 -3 45 -29 85 -59z m-519 -29 c15 -12 9 -36 -70 -278 -48
-146 -87 -266 -89 -268 -4 -6 -277 -53 -281 -48 -3 2 13 28 35 58 53 72 321
463 350 510 25 42 30 44 55 26z m346 -10 c7 -13 73 -108 146 -213 204 -293
255 -369 250 -373 -6 -6 -246 39 -266 49 -11 6 -43 89 -89 231 -39 123 -78
243 -86 267 -11 36 -11 46 -2 53 21 13 32 9 47 -14z m-95 -63 c46 -127 149
-456 143 -461 -3 -3 -59 4 -125 16 l-119 21 -109 -20 c-60 -12 -116 -21 -125
-21 -13 0 -2 44 62 243 44 133 81 247 83 253 3 7 36 11 90 11 l85 -1 15 -41z
m-124 -680 l0 -195 -180 0 c-99 0 -180 4 -180 8 0 11 109 335 115 341 6 5 189
38 223 40 l22 1 0 -195z m184 175 c60 -11 110 -21 112 -22 2 -3 114 -340 114
-345 0 -2 -81 -3 -180 -3 l-180 0 0 195 c0 149 3 195 13 195 6 0 61 -9 121
-20z m-494 -38 c0 -4 -24 -79 -53 -167 l-54 -160 -166 -3 c-92 -1 -167 0 -167
3 0 15 129 273 140 280 11 7 246 52 283 54 9 1 17 -2 17 -7z m823 -18 c77 -14
145 -28 150 -31 8 -5 137 -267 137 -279 0 -3 -75 -3 -167 -2 l-167 3 -52 155
c-53 155 -59 180 -48 180 3 0 69 -11 147 -26z m-1227 -106 c-13 -29 -40 -88
-60 -130 l-37 -78 -303 0 -304 0 -4 23 c-4 22 9 27 341 129 190 58 356 106
368 107 l23 1 -24 -52z m1835 -54 c346 -104 356 -107 351 -130 l-4 -24 -304 0
-304 0 -14 33 c-8 17 -34 76 -60 130 -27 57 -40 97 -33 97 6 0 172 -48 368
-106z m-1985 -256 c-13 -29 -37 -82 -54 -118 -19 -41 -39 -111 -54 -188 l-23
-122 -201 142 c-111 79 -216 154 -233 168 l-32 25 23 73 23 72 287 0 288 0
-24 -52z m424 41 c0 -21 -101 -318 -110 -324 -5 -3 -42 8 -82 24 -40 15 -112
41 -160 56 -49 15 -88 31 -88 35 0 4 23 55 50 114 l50 106 170 0 c117 0 170
-3 170 -11z m440 -254 c0 -146 -4 -265 -8 -265 -5 0 -69 22 -143 49 -74 27
-182 66 -240 86 l-107 37 40 121 c22 67 49 148 60 180 l20 57 189 0 189 0 0
-265z m484 93 c31 -95 56 -177 56 -183 0 -5 -46 -25 -103 -43 -56 -19 -163
-56 -238 -83 -75 -27 -139 -49 -142 -49 -4 0 -7 119 -7 265 l0 265 189 0 189
0 56 -172z m397 60 c26 -59 44 -110 40 -112 -7 -5 -275 -101 -312 -113 -12 -3
-20 5 -27 29 -6 18 -29 91 -51 161 -23 71 -41 133 -41 138 0 6 70 8 172 7
l171 -3 48 -107z m606 39 l23 -72 -24 -20 c-13 -11 -43 -33 -67 -50 -23 -16
-117 -83 -208 -147 -91 -64 -167 -115 -169 -114 -2 2 -14 62 -26 133 -19 103
-32 146 -66 212 -23 46 -45 94 -50 107 l-10 24 288 0 287 0 22 -73z m-2911
-167 c38 -27 147 -104 242 -171 94 -67 172 -128 172 -136 0 -24 -40 -247 -48
-267 -7 -15 -16 -7 -59 50 -83 113 -218 286 -347 444 -29 36 -56 70 -60 77 -6
12 13 53 25 53 3 0 37 -22 75 -50z m2988 31 c17 -19 16 -22 -44 -98 -33 -43
-128 -163 -210 -268 -195 -248 -197 -251 -203 -245 -3 3 -16 67 -30 142 -22
126 -23 139 -8 151 9 8 81 59 161 115 80 55 181 128 225 161 44 32 83 60 86
60 3 1 14 -8 23 -18z m-2735 -566 l102 -130 -5 -270 c-4 -148 -9 -322 -12
-386 l-6 -117 -36 -6 c-20 -3 -37 -4 -39 -2 -2 2 -109 316 -237 698 l-234 695
31 15 31 15 151 -191 c83 -105 197 -249 254 -321z m2824 496 c15 -8 27 -17 27
-21 0 -7 -460 -1383 -464 -1387 -1 -1 -18 0 -38 3 l-36 6 -6 162 c-3 88 -10
260 -15 381 l-9 220 42 55 c22 30 77 100 121 156 193 245 313 401 326 422 8
12 16 21 19 19 3 -1 17 -9 33 -16z m-682 -103 c13 -62 24 -117 24 -122 0 -8
-264 -206 -276 -206 -4 0 -99 287 -103 313 0 5 68 32 152 62 84 29 156 55 159
59 15 15 21 0 44 -106z m-1703 51 c84 -28 156 -57 159 -65 5 -13 -82 -292 -96
-306 -6 -6 -237 153 -266 183 -11 12 -10 31 6 114 23 117 26 125 36 125 4 0
77 -23 161 -51z m485 -170 c120 -42 221 -80 224 -83 4 -4 -7 -21 -24 -39 -17
-17 -81 -98 -143 -180 -62 -81 -117 -150 -121 -153 -6 -4 -234 153 -308 212
-4 4 87 290 100 316 11 20 4 22 272 -73z m865 -78 c32 -95 50 -166 45 -170 -5
-3 -73 -52 -152 -109 -78 -57 -146 -102 -150 -100 -5 2 -59 71 -121 153 -61
83 -122 161 -135 175 -13 14 -25 31 -27 38 -2 9 71 40 232 97 129 46 239 82
244 81 6 -1 34 -76 64 -165z m417 -153 l28 -161 -24 -20 c-13 -10 -49 -42 -79
-70 -30 -28 -69 -64 -86 -80 l-32 -29 -52 156 c-28 86 -50 162 -47 170 3 7 57
49 120 94 64 45 118 86 122 92 15 24 23 1 50 -152z m-1904 99 c41 -29 98 -70
127 -91 28 -21 52 -40 52 -43 0 -21 -103 -323 -110 -321 -4 2 -54 48 -111 102
l-103 99 23 136 c26 156 29 171 41 171 4 0 41 -24 81 -53z m1044 -172 c71 -93
132 -175 136 -181 6 -7 -40 -46 -128 -108 -75 -54 -142 -100 -149 -103 -7 -3
-44 17 -81 43 -97 68 -206 146 -217 155 -5 4 9 29 31 56 22 26 88 113 147 192
89 117 110 141 121 130 6 -8 70 -90 140 -184z m-664 -96 c76 -56 139 -104 139
-107 0 -8 -214 -291 -220 -291 -3 0 -45 37 -94 83 l-89 83 48 144 c61 182 63
189 71 189 3 0 68 -46 145 -101z m1233 -65 l55 -167 -76 -71 c-111 -104 -107
-102 -134 -64 -13 18 -61 84 -107 146 -59 79 -82 116 -75 123 16 16 267 197
275 198 3 1 31 -74 62 -165z m-1651 -97 l95 -87 -90 -270 c-85 -255 -91 -270
-111 -264 -12 4 -24 8 -25 10 -2 1 1 132 7 291 6 158 11 317 11 351 0 35 4 62
9 60 5 -1 52 -42 104 -91z m1971 21 c3 -40 8 -147 11 -238 3 -91 8 -217 11
-281 5 -115 4 -117 -18 -122 -12 -4 -25 -3 -28 1 -4 4 -46 125 -94 270 l-88
262 93 90 c52 49 97 89 100 90 4 0 9 -33 13 -72z m-1231 -90 c165 -117 154
-109 141 -114 -6 -3 -73 -49 -149 -104 l-139 -98 -100 53 c-56 30 -102 59
-104 64 -2 6 34 59 80 118 46 59 94 123 106 141 13 17 26 32 29 32 2 0 64 -42
136 -92z m626 -47 c58 -75 106 -142 108 -147 3 -9 -162 -107 -195 -116 -5 -2
-76 44 -157 102 -146 103 -147 104 -124 120 13 8 75 52 139 97 63 45 117 82
120 82 3 0 52 -62 109 -138z m-1057 -172 c9 -9 54 -36 100 -59 47 -23 95 -50
107 -60 l23 -17 -108 -75 c-60 -42 -156 -110 -214 -152 -57 -42 -109 -76 -115
-76 -5 0 -38 21 -73 47 -45 33 -61 51 -57 62 4 9 40 117 81 241 41 124 76 231
79 239 5 12 61 -35 177 -150z m1504 -104 c46 -137 82 -249 81 -250 -1 0 -30
-20 -65 -43 -35 -24 -69 -42 -75 -39 -7 2 -78 52 -159 110 -80 58 -173 123
-207 146 -34 23 -61 45 -61 49 0 4 50 34 111 66 82 44 130 79 192 137 45 43
86 77 91 76 5 -2 46 -115 92 -252z m-728 76 c73 -52 129 -98 125 -101 -5 -4
-69 -38 -143 -77 l-136 -69 -137 71 c-75 39 -139 74 -142 77 -9 9 277 208 289
201 6 -4 71 -49 144 -102z m-354 -201 c69 -36 126 -68 126 -71 0 -4 -38 -19
-84 -33 -46 -15 -204 -67 -350 -116 l-267 -88 -16 25 c-15 22 -15 26 -1 34 33
18 328 225 407 286 25 18 48 32 52 31 4 -2 64 -32 133 -68z m639 -1 c56 -40
162 -115 235 -167 127 -91 132 -96 118 -116 -8 -12 -18 -20 -23 -20 -26 5
-693 229 -693 233 0 5 247 139 258 141 1 0 49 -32 105 -71z m-150 -199 c498
-164 472 -155 469 -181 -1 -13 -8 -27 -15 -31 -6 -4 -346 -8 -753 -8 -667 0
-742 2 -748 16 -17 45 -13 47 212 119 119 38 285 93 367 121 83 29 160 53 173
53 12 1 145 -39 295 -89z"/>
<path d="M5242 2400 c-157 -22 -283 -93 -337 -191 -27 -49 -30 -62 -30 -149 0
-86 3 -100 29 -148 53 -95 156 -159 370 -227 78 -25 159 -56 181 -68 56 -31
85 -79 85 -137 0 -93 -69 -139 -211 -140 -74 0 -93 4 -140 28 -62 31 -99 84
-99 145 l0 37 -107 0 c-60 0 -119 -3 -131 -7 -23 -5 -24 -9 -17 -61 18 -144
121 -257 285 -312 91 -31 289 -39 380 -16 135 34 225 98 271 194 19 38 23 64
23 137 1 115 -17 164 -87 232 -65 65 -151 107 -338 167 -164 53 -201 72 -229
118 -60 99 32 208 175 208 124 0 197 -45 220 -135 l12 -50 127 -3 c69 -1 126
1 126 6 0 5 -5 35 -11 68 -21 113 -98 211 -204 259 -90 40 -235 59 -343 45z"/>
<path d="M5910 2290 l0 -100 180 0 180 0 0 -515 0 -516 126 3 125 3 -1 513 -1
512 186 0 185 0 0 100 0 100 -490 0 -490 0 0 -100z"/>
<path d="M7027 2383 c-11 -11 -8 -802 4 -873 12 -78 54 -172 98 -223 106 -120
342 -177 552 -133 174 37 300 157 335 320 10 45 13 176 14 489 l0 428 -127 -3
-128 -3 -5 -445 c-6 -494 -5 -487 -73 -547 -48 -42 -104 -56 -200 -51 -66 4
-84 9 -120 34 -23 17 -53 50 -67 74 l-25 45 -3 448 -3 447 -123 0 c-67 0 -126
-3 -129 -7z"/>
<path d="M8247 2383 c-4 -3 -7 -280 -7 -615 l0 -608 130 0 130 0 2 253 3 252
39 3 c22 2 49 1 60 -2 14 -4 70 -85 176 -255 l155 -251 158 0 c86 0 157 2 157
5 0 5 -132 208 -328 503 l-101 153 116 157 c64 86 154 208 200 270 46 62 87
120 90 128 5 12 -16 14 -148 12 l-154 -3 -168 -247 -168 -248 -45 0 -44 0 0
250 0 250 -123 0 c-68 0 -127 -3 -130 -7z"/>
</g>
</svg>
